# xmcd
#
# Track frame offsets: 
#        150
#        18037
#        37675
#        57724
#        72212
#        86505
#        100461
#        117794
#        129096
#        143931
#
# Disc length: 3856 seconds
#
# Revision: 2
# Processed by: cddbd v1.5.2PL0 Copyright (c) Steve Scherf et al.
# Submitted via: ExactAudioCopyFreeDBPlugin 1.0
#
DISCID=7c0f0e0a
DTITLE=Zumba Fitness - ZIN 42
DYEAR=2012
DGENRE=Dance
TTITLE0=Pa' que lo Bailen Bien
TTITLE1=Grupo Niche - Del Puente Pa' alla
TTITLE2=Rumba en Moscú
TTITLE3=3Ball MTY - Inténtalo (Me Prende)
TTITLE4=DJ Mam’s ft. Soldat Jahman and Luis Guisao - Fiesta Buena
TTITLE5=Corazoncito Bonito
TTITLE6=Nina Sky - Move Ya Body
TTITLE7=Give it Up
TTITLE8=LMFAO - Sexy and I Know it
TTITLE9=ZIN 42 Club Remix
EXTD=
EXTT0=
EXTT1=
EXTT2=
EXTT3=
EXTT4=
EXTT5=
EXTT6=
EXTT7=
EXTT8=
EXTT9=
PLAYORDER=
